<?xml version="1.0" standalone="no"?>
<!DOCTYPE svg PUBLIC "-//W3C//DTD SVG 20010904//EN"
 "http://www.w3.org/TR/2001/REC-SVG-20010904/DTD/svg10.dtd">
<svg version="1.0" xmlns="http://www.w3.org/2000/svg"
 width="500.000000pt" height="500.000000pt" viewBox="0 0 500.000000 500.000000"
 preserveAspectRatio="xMidYMid meet">
<metadata>
Created by potrace 1.14, written by Peter Selinger 2001-2017
</metadata>
<g transform="translate(0.000000,500.000000) scale(0.100000,-0.100000)"
fill="#000000" stroke="none">
<path d="M3855 4971 c-38 -17 -115 -91 -115 -110 0 -22 -31 -40 -53 -32 -12 4
-46 6 -76 5 -137 -7 -246 -154 -211 -286 11 -40 53 -108 72 -116 16 -7 7 -33
-26 -79 -87 -122 -157 -274 -247 -538 -142 -418 -268 -666 -384 -757 -16 -12
-40 -33 -54 -45 -38 -36 -157 -91 -246 -114 -217 -55 -756 -4 -1120 108 -418
128 -669 271 -943 539 -121 119 -135 122 -146 31 -22 -171 5 -333 83 -500 73
-159 192 -303 295 -358 25 -13 46 -27 46 -31 0 -4 -21 -7 -48 -7 -83 0 -197
-49 -255 -109 -38 -40 -26 -62 50 -97 32 -14 91 -47 132 -72 68 -42 72 -47 56
-60 -11 -7 -25 -13 -32 -13 -45 0 -223 -120 -223 -150 0 -5 31 -29 70 -54 99
-64 157 -128 237 -263 173 -288 322 -452 510 -561 162 -94 314 -133 532 -136
504 -8 902 210 1170 641 28 46 51 85 51 87 0 3 15 38 34 78 42 90 75 189 90
268 13 69 19 89 27 84 5 -3 7 -8 5 -12 -2 -4 -7 -27 -10 -52 -6 -46 -12 -78
-21 -128 -3 -15 -8 -39 -10 -53 -15 -100 -80 -290 -143 -414 -73 -147 -152
-256 -262 -364 -213 -210 -492 -322 -859 -345 -115 -8 -112 -15 26 -61 116
-39 296 -81 426 -99 51 -7 97 -15 103 -18 7 -5 12 -184 5 -219 0 -4 -20 -14
-43 -23 -114 -46 -258 -168 -303 -256 -40 -80 -31 -146 28 -209 41 -43 84 -61
148 -61 60 0 97 20 166 87 65 64 121 87 213 87 93 0 147 -22 216 -89 73 -72
100 -85 169 -85 78 0 130 29 162 89 75 142 -43 324 -281 430 l-67 31 2 104 c1
65 6 109 13 114 6 5 49 14 96 21 271 40 556 142 781 282 85 53 87 55 190 141
241 205 394 492 425 798 14 140 5 348 -22 510 -2 14 -11 68 -19 120 -9 52 -27
151 -40 220 -14 69 -27 139 -30 155 -14 74 -17 245 -6 309 23 134 97 273 170
322 67 44 177 41 289 -7 66 -29 75 -16 57 78 -21 108 -81 221 -156 291 -23 22
-31 41 -40 92 -13 86 -34 151 -76 233 l-35 67 31 35 c42 48 61 98 61 159 0 49
-22 110 -52 148 -38 46 -141 74 -214 58 -40 -9 -45 -6 -75 54 -52 105 -189
155 -294 107z m432 -799 c32 -25 38 -73 12 -100 -20 -23 -30 -26 -64 -22 -57
6 -76 82 -29 119 32 25 52 26 81 3z"/>
</g>
</svg>
